# xmcd
#
# Track frame offsets: 
#        150
#        21508
#        46288
#        68763
#        97587
#        118680
#        151395
#        187234
#        218362
#        247032
#
# Disc length: 3743 seconds
#
# Revision: 0
# Processed by: cddbd v1.5.2PL0 Copyright (c) Steve Scherf et al.
# Submitted via: ExactAudioCopy v1.0b6
#
DISCID=830e9d0a
DTITLE=麗蘭 - 磔磔2011盤 ゆく歳 くる歳
DYEAR=2012
DGENRE=Blues
TTITLE0=ゆく歳 くる歳
TTITLE1=Happy Song
TTITLE2=ハ・ハ・ハ
TTITLE3=ココナッツバター
TTITLE4=太陽のシェリー
TTITLE5=がらがらヘビ(P.Greenに捧ぐ)
TTITLE6=Yes We Can 2011
TTITLE7=天の川サーフ
TTITLE8=Thank you everybody
TTITLE9=Hello Good-bye
EXTD=
EXTT0=
EXTT1=
EXTT2=
EXTT3=
EXTT4=
EXTT5=
EXTT6=
EXTT7=
EXTT8=
EXTT9=
PLAYORDER=
